<svg width="42" height="42" viewBox="0 0 42 42" fill="none" xmlns="http://www.w3.org/2000/svg">
<path fill-rule="evenodd" clip-rule="evenodd" d="M4.58984 11.4759V30.5226L21.0004 40.0473L37.4074 30.5226V11.4759L21.0004 1.95215L4.58984 11.4759ZM6.03426 29.6875V12.3146L21.0004 3.62404L35.9675 12.3146V29.6875L21.0004 38.3745L6.03426 29.6875Z" fill="#32C1FE"/>
<path fill-rule="evenodd" clip-rule="evenodd" d="M27.4284 10.1748H14.5339L13.0391 16.7837H28.9826L27.4284 10.1748Z" fill="#32C1FE"/>
<path fill-rule="evenodd" clip-rule="evenodd" d="M16.8254 25.8792V21.4878L13.0061 19.0469L8.68359 22.2767L14.5756 32.5767H16.9289L19.7125 29.9721V28.663L16.8254 25.8792Z" fill="#32C1FE"/>
<path fill-rule="evenodd" clip-rule="evenodd" d="M25.1857 17.7812H16.8359L18.2426 21.4734L17.8142 25.6105H20.9964L24.2092 25.5961L23.8088 21.4734L25.1857 17.7812Z" fill="#32C1FE"/>
<path fill-rule="evenodd" clip-rule="evenodd" d="M29.0091 19.0166L25.2338 21.4873V25.8787L22.3477 28.6625V29.9716L25.1303 32.5473H27.454L33.3172 22.2762L29.0091 19.0166Z" fill="#32C1FE"/>
</svg>
